# xmcd
#
# Track frame offsets: 
#        150
#        10122
#        19787
#        29922
#        41197
#        52315
#        62930
#        75152
#        86847
#        96860
#        108182
#        119695
#        129235
#        141407
#        153557
#        164357
#        175982
#        187740
#        198032
#        210042
#
# Disc length: 2961 seconds
#
# Revision: 2
# Processed by: cddbd v1.4PL0 Copyright (c) Steve Scherf et al.
# Submitted via: ExactAudioCopy v0.90b4
#
DISCID=0f0b8f14
DTITLE=George Jones - She Thinks I Still Care (The George Jones Collec
DTITLE=tion) - Disc 2
DYEAR=1900
DGENRE=Country
TTITLE0=Let's Invite Them Over (With Melba Montgomery)
TTITLE1=Rollin' In My Sweet Baby's Arms (With Melba Montgomery)
TTITLE2=Your Heart Turned Left (And I Was On The Right)
TTITLE3=My Tears Are Overdue
TTITLE4=We Could
TTITLE5=I'm Just Blue Enough
TTITLE6=Something I Dreamed
TTITLE7=Where Does A Little Tear Come From
TTITLE8=Gonna Have A Little Talk With You
TTITLE9=Gold and Silver
TTITLE10=Please Be My Love (With Melba Montgomery)
TTITLE11=The Race Is On
TTITLE12=She's Mine
TTITLE13=Lonesome Life
TTITLE14=Multiply The Heartaches (With Melba Montgomery)
TTITLE15=Least Of All
TTITLE16=Wrong Number
TTITLE17=She Once Lived Here
TTITLE18=What's Money
TTITLE19=World's Worst Loser
EXTD=
EXTT0=With Melba Montgomery
EXTT1=With Melba Montgomery
EXTT2=
EXTT3=
EXTT4=
EXTT5=
EXTT6=
EXTT7=
EXTT8=
EXTT9=
EXTT10=With Melba Montgomery
EXTT11=
EXTT12=
EXTT13=
EXTT14=With Melba Montgomery
EXTT15=
EXTT16=
EXTT17=
EXTT18=
EXTT19=
PLAYORDER=
